# xmcd CD database file
#
# Track frame offsets:
#	150
#	17907
#	36170
#	58400
#	81127
#	101332
#	120095
#	141355
#	158890
#	177592
#	197595
#
# Disc length: 2920 seconds
#
# Revision: 0
# Processed by: cddbd v1.5.1PL0 Copyright (c) Steve Scherf et al.
# Submitted via: CDex 1.51
#
DISCID=910b660b
DTITLE=PHILIP BARDOWELL - In The Cut
DYEAR=2005
DGENRE=Hard Rock
TTITLE0=In The Cut
TTITLE1=Through My Eyes
TTITLE2=Heart of A Hero
TTITLE3=I Gotta Believe
TTITLE4=She Will Never Know
TTITLE5=Never Too Late For Love
TTITLE6=It's A Long Road
TTITLE7=One Day In January
TTITLE8=Dreamin' With My Eyes Wide Open
TTITLE9=Voices of The Heart
TTITLE10=Its' A Long Road (Rimixed)
EXTD=YEAR: 2005
EXTT0=
EXTT1=
EXTT2=
EXTT3=
EXTT4=
EXTT5=
EXTT6=
EXTT7=
EXTT8=
EXTT9=
EXTT10=
PLAYORDER=
